<svg height='100px' width='100px'  fill="#001858" xmlns="http://www.w3.org/2000/svg" viewBox="0 0 512 512" x="0px" y="0px"><title>Smile-Emoji-Emotion-Face-Expression-Feeling_2</title><path d="M389,0H73A10,10,0,0,0,63,10V458.57a10,10,0,0,0,10,10h31.3v33.27a10,10,0,0,0,17.75,6.32l14.13-17.31,14.12,17.31a10,10,0,0,0,17.75-6.32V468.57H389a60.07,60.07,0,0,0,60-60V60A60.07,60.07,0,0,0,389,0ZM83,20h275.3V448.57H83ZM429,408.57a40.08,40.08,0,0,1-32.06,39.21v-427A40.08,40.08,0,0,1,429,60Z"></path><path d="M288.05,200.77a27.58,27.58,0,0,0-27.55,27.55,10,10,0,0,0,20,0,7.56,7.56,0,0,1,15.11,0,10,10,0,1,0,20,0A27.58,27.58,0,0,0,288.05,200.77Z"></path><path d="M151.28,200.77a27.58,27.58,0,0,0-27.55,27.55,10,10,0,0,0,20,0,7.56,7.56,0,0,1,15.11,0,10,10,0,0,0,20,0A27.58,27.58,0,0,0,151.28,200.77Z"></path><path d="M253.21,257.54a10,10,0,0,0-9.56,7c-.69,1.82-5.77,13.41-24,13.41s-23.3-11.59-24-13.41a10,10,0,1,0-19,6.13h0c.36,1.11,9.14,27.27,43,27.27s42.66-26.16,43-27.27h0a9.82,9.82,0,0,0,.53-3.18A10,10,0,0,0,253.21,257.54Z"></path></svg>