<svg height='100px' width='100px'  fill="#001858" xmlns="http://www.w3.org/2000/svg" viewBox="0 0 512 512" x="0px" y="0px"><title>Smile-Emoji-Emotion-Face-Expression-Feeling</title><path d="M474.92,24H37.08A36.12,36.12,0,0,0,1,60.12V375a36.13,36.13,0,0,0,36.08,36.08H185.25L172.65,468H150a10,10,0,1,0,0,20H362a10,10,0,0,0,0-20H339.35l-12.6-56.84H474.92A36.13,36.13,0,0,0,511,375V60.12A36.12,36.12,0,0,0,474.92,24ZM37.08,44H474.92A16.09,16.09,0,0,1,491,60.12V323.35H21V60.12A16.09,16.09,0,0,1,37.08,44ZM318.87,468H193.13l12.61-56.84H306.26Zm156.05-76.84H37.08A16.1,16.1,0,0,1,21,375V343.35H491V375A16.1,16.1,0,0,1,474.92,391.12Z"></path><circle cx="180.93" cy="168.38" r="19.29"></circle><circle cx="331.07" cy="168.38" r="19.29"></circle><path d="M289.54,195.54a10,10,0,0,0-9.56,7c-.68,1.83-5.77,13.42-24,13.42s-23.3-11.59-24-13.42a10,10,0,0,0-19.56,3,9.87,9.87,0,0,0,.53,3.18h0c.35,1.12,9.13,27.28,43,27.28s42.67-26.16,43-27.28h0a9.87,9.87,0,0,0,.53-3.18A10,10,0,0,0,289.54,195.54Z"></path></svg>