<svg height='100px' width='100px'  fill="#001858" xmlns="http://www.w3.org/2000/svg" viewBox="0 0 512 512" x="0px" y="0px"><title>Laughing-Emoji-Emotion-Face-Expression-Feeling_1</title><path d="M476,69.94H36a35,35,0,0,0-35,35V407.06a35,35,0,0,0,35,35H476a35,35,0,0,0,35-35V104.94A35,35,0,0,0,476,69.94Zm-10.57,20L271.63,223.63a28.33,28.33,0,0,1-31.71.31L36.1,89.94ZM491,407.06a15,15,0,0,1-15,15H36a15,15,0,0,1-15-15V104.94c0-.32,0-.64.05-1L228.93,240.65a48.27,48.27,0,0,0,54-.55L489.2,97.84a14.85,14.85,0,0,1,1.8,7.1Z"></path><circle cx="180.93" cy="285.21" r="19.29"></circle><circle cx="331.07" cy="285.21" r="19.29"></circle><path d="M300.89,304H211.11a10,10,0,0,0-10,10,54.89,54.89,0,0,0,109.78,0A10,10,0,0,0,300.89,304ZM256,348.89a35,35,0,0,1-24.69-10.26,47.86,47.86,0,0,1,49.38,0A35,35,0,0,1,256,348.89Z"></path></svg>