<svg height='100px' width='100px'  fill="#001858" xmlns="http://www.w3.org/2000/svg" viewBox="0 0 512 512" x="0px" y="0px"><title>Happy-Emoji-Emotion-Face-Expression-Feeling_1</title><path d="M452.81,109.29c0-.11,0-.23,0-.34a10.42,10.42,0,0,0-.16-1.25v0a9.12,9.12,0,0,0-.34-1.24l-.12-.32a10.93,10.93,0,0,0-.48-1.11.2.2,0,0,1,0-.08,10.49,10.49,0,0,0-.69-1.09l-.2-.27a11.63,11.63,0,0,0-.86-1h0L350.53,3.19h0a11.5,11.5,0,0,0-1-.86l-.28-.2a9.45,9.45,0,0,0-1.09-.68l-.09-.05A9.88,9.88,0,0,0,347,.91l-.32-.12c-.41-.13-.82-.25-1.23-.34h0a10.52,10.52,0,0,0-1.24-.16h-.35l-.33,0H69.18a10,10,0,0,0-10,10V502a10,10,0,0,0,10,10H442.82a10,10,0,0,0,10-10V109.63C452.82,109.51,452.81,109.4,452.81,109.29ZM353.46,34.4l65.22,65.22H353.46Zm-20-14.14v89.36a10,10,0,0,0,10,10h89.36V492H79.18V20.26Z"></path><circle cx="180.93" cy="285.21" r="19.29"></circle><circle cx="331.07" cy="285.21" r="19.29"></circle><path d="M300.89,304H211.11a10,10,0,0,0-10,10,54.94,54.94,0,0,0,12.82,35.25h0a54.86,54.86,0,0,0,84.11,0h0A55,55,0,0,0,310.89,314,10,10,0,0,0,300.89,304Zm-11.47,20a35,35,0,0,1-4.05,8.83H226.63a35,35,0,0,1-4-8.83Z"></path></svg>