<svg height='100px' width='100px'  fill="#001858" xmlns="http://www.w3.org/2000/svg" viewBox="0 0 512 512" x="0px" y="0px"><defs><style>.cls-1{fill:none;}.cls-1,.cls-2{stroke:#001858;stroke-linecap:round;stroke-linejoin:round;stroke-width:20px;}</style></defs><title>Smile-Emoji-Emotion-Face-Expression-Feeling</title><path class="cls-1" d="M341.38,361.24s-16.84,52.52-86.55,52.52-86.54-52.52-86.54-52.52"></path><circle class="cls-2" cx="194.57" cy="285.24" r="16.22" transform="translate(-144.71 221.13) rotate(-45)"></circle><circle class="cls-2" cx="315.09" cy="285.24" r="16.22" transform="translate(-34.52 526.94) rotate(-76.81)"></circle><path class="cls-1" d="M94.88,237.68c-.65,0-1.3-.06-2-.06-29,0-52.59,24.88-52.59,55.56s23.55,55.55,52.59,55.55c.66,0,1.31,0,2-.05Z"></path><path class="cls-1" d="M94.88,312.64s-12.37-25.06-27.27-27.92"></path><path class="cls-1" d="M420.88,237.68c.65,0,1.3-.06,2-.06,29,0,52.59,24.88,52.59,55.56s-23.55,55.55-52.59,55.55c-.66,0-1.31,0-2-.05Z"></path><path class="cls-1" d="M420.88,312.64s12.37-25.06,27.27-27.92"></path><path class="cls-1" d="M420.88,237.68V339a163,163,0,0,1-163,163h0a163,163,0,0,1-163-163V237.68S378.34,246.45,378.34,120C378.34,120,420.88,147.87,420.88,237.68Z"></path><path class="cls-2" d="M462.74,329.35a51.37,51.37,0,0,1-39.9,19.38c-.66,0-1.31,0-2-.05,0,0-.12.4-.37,1.16a162.92,162.92,0,0,1-76.9,127.82A95.21,95.21,0,1,0,462.74,329.35Z"></path><path class="cls-1" d="M94.88,237.68s40.06-24.94,63.17-54.65"></path><path class="cls-1" d="M278.15,158.4s-19.59,38.66-73.08,73"></path><path class="cls-2" d="M257.88,10.65C36.36,10.65,52,258.36,52,258.36h0c9.64-12.64,24.4-20.74,41-20.74.66,0,1.31,0,2,.06h0S378.34,246.45,378.34,120c0,0,42.54,27.88,42.54,117.69.65,0,1.3-.06,2-.06A51.29,51.29,0,0,1,461.91,256h0S479.4,10.65,257.88,10.65Z"></path><path class="cls-2" d="M95.25,349.86l-.37-1.18c-.65,0-1.3.05-2,.05-16.57,0-31.34-8.1-41-20.75A95.22,95.22,0,1,0,170.39,476.56,162.89,162.89,0,0,1,95.25,349.86Z"></path></svg>